<?xml version="1.0" encoding="iso-8859-1"?>
<!-- Generator: Adobe Illustrator 16.0.0, SVG Export Plug-In . SVG Version: 6.00 Build 0)  -->
<!DOCTYPE svg PUBLIC "-//W3C//DTD SVG 1.1//EN" "http://www.w3.org/Graphics/SVG/1.1/DTD/svg11.dtd">
<svg version="1.1" id="Capa_1" xmlns="http://www.w3.org/2000/svg" xmlns:xlink="http://www.w3.org/1999/xlink" x="0px" y="0px"
	 width="66px" height="66px" viewBox="0 0 66 66" style="enable-background:new 0 0 66 66;" xml:space="preserve">
<g>
	<g>
		<g>
			<path d="M47.18,66h-30c-7.207,0-9.68-1.338-9.68-9.625V24c0-1.104,0.896-2,2-2s2,0.896,2,2v32.375
				c0,5.256-0.133,5.625,5.68,5.625h30c5.618,0,6.32-0.158,6.32-5.625V24c0-1.104,0.896-2,2-2s2,0.896,2,2v32.375
				C57.5,64.021,54.949,66,47.18,66z"/>
		</g>
		<g>
			<path d="M46.5,13c-1.104,0-2-0.896-2-2v-0.625C44.5,4.596,43.42,4,38.18,4h-12c-5.464,0-5.68,0.774-5.68,6.375V11
				c0,1.104-0.896,2-2,2s-2-0.896-2-2v-0.625C16.5,2.618,18.539,0,26.18,0h12C46.496,0,48.5,3.346,48.5,10.375V11
				C48.5,12.104,47.604,13,46.5,13z"/>
		</g>
		<g>
			<g>
				<path d="M20.5,56c-0.553,0-1-0.448-1-1v-2c0-0.553,0.447-1,1-1s1,0.447,1,1v2C21.5,55.552,21.053,56,20.5,56z"/>
			</g>
			<g>
				<path d="M20.5,49c-0.553,0-1-0.448-1-1V31c0-0.552,0.447-1,1-1s1,0.448,1,1v17C21.5,48.552,21.053,49,20.5,49z"/>
			</g>
			<g>
				<path d="M32.5,56c-0.553,0-1-0.448-1-1V31c0-0.552,0.447-1,1-1s1,0.448,1,1v24C33.5,55.552,33.053,56,32.5,56z"/>
			</g>
			<g>
				<path d="M44.5,56c-0.553,0-1-0.448-1-1V31c0-0.552,0.447-1,1-1s1,0.448,1,1v24C45.5,55.552,45.053,56,44.5,56z"/>
			</g>
		</g>
		<g>
			<path d="M65.5,17.75c0,4.556-3.693,8.25-8.25,8.25H8.75c-4.557,0-8.25-3.694-8.25-8.25v-0.5C0.5,12.694,4.193,9,8.75,9h48.5
				c4.557,0,8.25,3.694,8.25,8.25V17.75z M61.5,17.25c0-2.347-1.902-4.25-4.25-4.25H8.75c-2.348,0-4.25,1.903-4.25,4.25v0.5
				C4.5,20.097,6.402,22,8.75,22h48.5c2.348,0,4.25-1.903,4.25-4.25V17.25z"/>
		</g>
	</g>
</g>
<g>
</g>
<g>
</g>
<g>
</g>
<g>
</g>
<g>
</g>
<g>
</g>
<g>
</g>
<g>
</g>
<g>
</g>
<g>
</g>
<g>
</g>
<g>
</g>
<g>
</g>
<g>
</g>
<g>
</g>
</svg>
